<?xml version="1.0" encoding="UTF-8" standalone="no"?> <svg xmlns:dc="http://purl.org/dc/elements/1.1/" xmlns:cc="http://creativecommons.org/ns#" xmlns:rdf="http://www.w3.org/1999/02/22-rdf-syntax-ns#" xmlns:svg="http://www.w3.org/2000/svg" xmlns="http://www.w3.org/2000/svg" viewBox="0 0 1280 746.66669" height="746.66669" width="1280" xml:space="preserve" id="svg2" version="1.1"><metadata id="metadata8"></metadata><defs id="defs6"><clipPath id="clipPath36"><path id="path34" d="M 0,560 H 960 V 0 H 0 Z"></path></clipPath><clipPath id="clipPath48"><path id="path46" d="M 41.562,409.359 H 323.668 V 155.208 H 41.562 Z"></path></clipPath></defs><g transform="matrix(1.3333333,0,0,-1.3333333,0,746.66667)" id="g10"><path id="path12" style="fill:#ffffff;fill-opacity:1;fill-rule:nonzero;stroke:none" d="M 931,149 H 33 v 271 h 898 z"></path><path id="path14" style="fill:#eceaf5;fill-opacity:1;fill-rule:nonzero;stroke:none" d="M 324,156 H 41 v 257 h 283 z"></path><path id="path16" style="fill:#9e3e5c;fill-opacity:1;fill-rule:nonzero;stroke:none" d="M 924,156.987 H 331 V 413 h 593 z"></path><text id="text20" style="font-variant:normal;font-weight:bold;font-stretch:normal;font-size:87.91999817px;font-family:Verdana;-inkscape-font-specification:Verdana-Bold;writing-mode:lr-tb;fill:#cfbbc1;fill-opacity:1;fill-rule:nonzero;stroke:none" transform="matrix(1,0,0,-1,354.5435,310.5918)"><tspan id="tspan18" y="0" x="0 66.995041 141.72704 240.9008 324.24896 392.47488 466.94312 496.13257">BOWMAN’s</tspan></text> <text id="text24" style="font-variant:normal;font-weight:normal;font-stretch:normal;font-size:76.08000183px;font-family:Verdana;-inkscape-font-specification:Verdana;writing-mode:lr-tb;fill:#cfbbc1;fill-opacity:1;fill-rule:nonzero;stroke:none" transform="matrix(1,0,0,-1,456.584,194.4092)"><tspan id="tspan22" y="0" x="0 45.87624 98.751839 146.8344 210.96983 242.99953 298.69009">PREMIUM</tspan></text> <g transform="translate(379.7134,278.667)" id="g26"><path id="path28" style="fill:none;stroke:#cfbbc1;stroke-width:4;stroke-linecap:butt;stroke-linejoin:miter;stroke-miterlimit:10;stroke-dasharray:none;stroke-opacity:1" d="M 0,0 H 494.558"></path></g><g id="g30"><g clip-path="url(#clipPath36)" id="g32"><g transform="translate(82.335,307.1694)" id="g38"><path id="path40" style="fill:#bdbdbd;fill-opacity:1;fill-rule:nonzero;stroke:none" d="m 0,0 c 5.772,10.388 12.988,19.644 21.779,27.659 1.013,0.923 2.886,1.183 3.886,1.744 v 0.007 c -1,-0.567 -2.907,-0.825 -3.923,-1.751 C 12.95,19.644 5.655,10.388 -0.118,0 -6.872,-12.154 -14.444,-23.538 -28.24,-28.667 -14.444,-23.538 -6.755,-12.154 0,0"></path></g><g id="g42"><g id="g44"></g><g id="g68"><g id="g66" clip-path="url(#clipPath48)"><g id="g52" transform="translate(322.7134,156.4893)"><path id="path50" style="fill:#bdbdbd;fill-opacity:1;fill-rule:nonzero;stroke:none" d="M 0,0 V -0.095 H -0.19 C -0.119,-0.071 -0.059,-0.048 0,0"></path></g><g id="g56" transform="translate(322.7134,156.4893)"><path id="path54" style="fill:#bdbdbd;fill-opacity:1;fill-rule:nonzero;stroke:none" d="M 0,0 C -0.059,-0.048 -0.119,-0.071 -0.19,-0.095 H -168.454 V 1.091 H 0 V 0.498 Z"></path></g><g id="g60" transform="translate(248.0361,156.0977)"><path id="path58" style="fill:#bdbdbd;fill-opacity:1;fill-rule:nonzero;stroke:none" d="m 0,0 c -31.769,0 -63.538,-0.048 -95.307,0.048 -1.4,0 -2.799,0.901 -4.199,1.376 0.439,1.233 0.605,2.692 1.376,3.665 5.92,7.39 12.1,14.557 17.937,22.017 6.311,8.068 10.937,16.787 10.368,27.594 -0.226,4.188 0.759,8.363 3.037,12.148 1.803,2.989 3.025,6.311 4.768,9.324 3.37,5.884 6.11,12.373 10.559,17.296 7.556,8.34 16.074,15.861 24.532,23.358 3.559,3.144 7.794,5.552 13.192,4.71 2.515,-0.403 5.255,0.083 7.818,0.581 2.941,0.581 5.741,1.898 8.695,2.42 6.216,1.127 12.729,1.222 18.708,3.061 14.224,4.354 26.68,12.29 38.424,21.235 4.745,3.618 8.672,8.042 9.502,14.46 0.961,7.308 2.622,14.556 3.108,21.887 0.095,1.424 0.143,2.847 0.143,4.283 h 2.953 c 0.012,-20.191 0.012,-40.393 0.012,-60.584 0.012,-41.473 0,-82.934 0,-124.371 0,-2.527 -0.059,-3.642 -0.949,-4.116 V 0.89 1.482 H -93.776 V 0.297 H 74.487 C 73.835,0.023 72.791,0 71.166,0 47.452,-0.012 23.726,0 0,0"></path></g><g id="g64" transform="translate(53.5435,271.2041)"><path id="path62" style="fill:#bdbdbd;fill-opacity:1;fill-rule:nonzero;stroke:none" d="m 0,0 c -3.82,-1.412 -7.236,-3.975 -11.981,-2.61 v 0.498 h 1.186 V 136.685 H 269.17 v 1.47 h 0.901 c 0.012,-21.27 0.024,-42.528 0.036,-63.799 h -2.954 c 0,4.663 -0.45,9.36 -1.008,13.987 -0.522,4.271 -1.744,4.603 -6.169,4.294 -10.427,-0.699 -20.879,-1.221 -31.318,-1.85 -5.587,-0.332 -11.187,-1.175 -16.75,-1.02 -7.771,0.225 -15.755,0.225 -23.193,2.099 -5.943,1.495 -11.151,5.765 -16.798,8.589 -2.194,1.103 -4.626,2.064 -7.046,2.337 -9.039,1.044 -18.352,-1.685 -27.261,2.325 -2.764,1.246 -6.287,-0.664 -6.608,-2.491 -0.747,-4.14 0.321,-5.433 4.544,-5.41 1.483,0.012 2.954,0.226 4.425,0.332 9.799,0.701 19.502,0.819 28.364,-4.436 3.369,-1.993 6.608,-4.247 10.143,-5.908 3.487,-1.637 7.224,-3.582 10.938,-3.796 11.4,-0.7 22.835,-0.771 34.26,-0.771 10.57,-0.012 21.151,0.332 31.721,0.605 3.096,0.083 4.757,-1.293 4.484,-4.295 -0.297,-3.202 -1.02,-6.346 -1.637,-9.502 -0.415,-2.182 -1.257,-4.282 -1.447,-6.465 -0.724,-8.209 -4.2,-14.84 -11.175,-19.313 C 238.409,39.041 231.125,34.521 223.687,30.262 215.585,25.624 207.21,21.27 197.826,20.119 191.468,19.324 184.931,19.906 178.501,19.585 168.074,19.063 158.37,16.644 151.418,7.948 146.721,2.088 141.644,-3.5 137.385,-9.657 c -6.003,-8.684 -11.412,-17.794 -17.095,-26.727 -4.164,-6.537 -5.386,-13.607 -4.282,-21.27 0.415,-2.883 0.261,-5.944 -0.131,-8.826 -1.376,-10.274 -7.07,-18.126 -14.176,-25.114 -7.343,-7.236 -13.963,-14.912 -17.806,-24.402 h -95.876 v 96.232 c 3.558,0.783 6.5,1.483 9.739,2.337 3.226,0.854 6.37,1.863 9.573,2.8 0.807,0.237 1.768,0.261 2.361,0.747 2.681,2.159 5.303,4.377 7.841,6.691 2.207,1.993 7.509,3.12 8.649,1.566 2.586,-3.606 5.089,-7.236 7.497,-10.939 3.179,-4.875 6.133,-9.88 9.443,-14.65 0.735,-1.067 2.55,-1.364 3.867,-2.017 0.404,1.436 1.364,2.978 1.103,4.271 -0.522,2.539 -1.59,4.971 -2.669,7.367 -1.613,3.547 -4.092,6.857 -5.03,10.558 -4.116,16.264 -3.167,32.066 5.706,46.847 3.464,5.789 7.937,11.127 8.779,18.138 0.166,1.412 -0.498,2.919 -0.771,4.378 C 52.754,57.76 51.129,57.511 50.109,56.574 41.271,48.531 33.963,39.23 28.163,28.803 21.377,16.596 13.856,5.16 0,0 m 81.641,-12.136 c 1.779,2.764 3.333,5.053 4.78,7.414 1.875,3.037 3.441,6.276 5.54,9.147 5.054,6.916 10.487,13.535 15.434,20.522 1.72,2.444 2.752,5.493 3.583,8.411 1.079,3.844 1.767,7.83 2.42,11.792 0.617,3.737 1.269,7.533 1.293,11.305 0.012,1.744 -1.021,4.449 -2.314,5.006 -1.257,0.534 -3.463,-1.079 -5.231,-1.803 -0.368,-0.154 -0.617,-0.581 -0.925,-0.878 C 99.72,52.73 95.129,45.292 92.282,37.06 87.727,23.88 83.835,10.463 79.79,-2.907 c -0.878,-2.882 -0.356,-5.801 1.851,-9.229"></path></g></g></g></g><path id="path70" style="fill:#bdbdbd;fill-opacity:1;fill-rule:nonzero;stroke:none" d="M 324,156 H 154 v 9 h 170 z"></path><path id="path72" style="fill:#bdbdbd;fill-opacity:1;fill-rule:nonzero;stroke:none" d="M 321,165 H 173 v 22 h 148 z"></path><path id="path74" style="fill:#bdbdbd;fill-opacity:1;fill-rule:nonzero;stroke:none" d="M 324,396 H 43 v 17 h 281 z"></path><path id="path76" style="fill:#bdbdbd;fill-opacity:1;fill-rule:nonzero;stroke:none" d="m 46,269 h -5 v 144 h 5 z"></path><path id="path78" style="fill:none;stroke:#9e3e5c;stroke-width:2;stroke-linecap:butt;stroke-linejoin:miter;stroke-miterlimit:10;stroke-dasharray:none;stroke-opacity:1" d="M 931,149 H 33 v 271 h 898 z"></path></g></g></g></svg> 