<svg width="1010" height="241" viewBox="0 0 1010 241" fill="none" xmlns="http://www.w3.org/2000/svg">
<path d="M715.598 161.218V59.5879H772.207V237.69H720.233V218.489C715.377 225.11 708.425 230.517 699.377 234.71C690.549 238.903 680.949 241 670.576 241C658.879 241 648.286 238.572 638.796 233.717C629.306 228.641 621.802 221.027 616.285 210.875C610.988 200.502 608.34 187.481 608.34 171.812V59.5879H664.948V161.218C664.948 170.929 667.155 178.212 671.569 183.067C676.204 187.923 682.494 190.35 690.439 190.35C694.191 190.35 697.942 189.357 701.694 187.371C705.667 185.164 708.977 181.964 711.625 177.771C714.274 173.357 715.598 167.839 715.598 161.218Z" fill="black"/>
<path d="M589.419 237.69H532.148V0H589.419V237.69Z" fill="black"/>
<path d="M429.708 241C416.466 241 404.218 238.683 392.962 234.048C381.707 229.193 371.886 222.572 363.499 214.185C355.113 205.578 348.492 195.757 343.637 184.723C339.002 173.467 336.685 161.439 336.685 148.639C336.685 135.838 339.002 123.921 343.637 112.886C348.492 101.631 355.113 91.8095 363.499 83.4231C371.886 74.816 381.707 68.1951 392.962 63.5605C404.218 58.7051 416.466 56.2775 429.708 56.2775C442.95 56.2775 455.198 58.7051 466.454 63.5605C477.709 68.1951 487.53 74.816 495.917 83.4231C504.303 91.8095 510.814 101.631 515.448 112.886C520.304 123.921 522.731 135.838 522.731 148.639C522.731 161.439 520.304 173.467 515.448 184.723C510.814 195.757 504.303 205.578 495.917 214.185C487.53 222.572 477.709 229.193 466.454 234.048C455.198 238.683 442.95 241 429.708 241ZM429.708 190.35C435.667 190.35 441.184 188.805 446.26 185.716C451.557 182.626 455.75 177.991 458.84 171.812C462.15 165.632 463.806 157.908 463.806 148.639C463.806 139.37 462.15 131.645 458.84 125.466C455.75 119.286 451.557 114.762 446.26 111.893C441.184 108.803 435.667 107.258 429.708 107.258C423.97 107.258 418.453 108.803 413.156 111.893C407.859 114.762 403.556 119.286 400.245 125.466C397.155 131.645 395.61 139.37 395.61 148.639C395.61 157.908 397.155 165.632 400.245 171.812C403.556 177.991 407.859 182.626 413.156 185.716C418.453 188.805 423.97 190.35 429.708 190.35Z" fill="black"/>
<path d="M353.956 59.5879L290.064 237.69H227.166L162.612 59.5879H224.187L259.939 173.467L296.354 59.5879H353.956Z" fill="black"/>
<path d="M168.17 183.398V237.69H0V0H165.853V54.2912H62.5673V88.3888H156.253V142.68H62.5673V183.398H168.17Z" fill="black"/>
<path d="M971.681 237.69H907.128L873.692 179.426L841.581 237.69H778.021L826.55 161.55H922.448L971.681 237.69ZM877.665 116.197L907.459 59.5886H967.378L921.322 138.377H830.158L781.993 59.5886H847.871L877.665 116.197Z" fill="black"/>
<circle cx="993.132" cy="221.137" r="16.5522" fill="#E65E15"/>
</svg>
